<?xml version="1.0" encoding="UTF-8"?>
<!DOCTYPE svg PUBLIC "-//W3C//DTD SVG 1.1//EN" "http://www.w3.org/Graphics/SVG/1.1/DTD/svg11.dtd">
<svg xmlns="http://www.w3.org/2000/svg" version="1.1" width="312px" height="128px" style="shape-rendering:geometricPrecision; text-rendering:geometricPrecision; image-rendering:optimizeQuality; fill-rule:evenodd; clip-rule:evenodd" xmlns:xlink="http://www.w3.org/1999/xlink">
<g><path style="opacity:0.977" fill="#edebed" d="M 76.5,-0.5 C 77.5,-0.5 78.5,-0.5 79.5,-0.5C 90.618,12.7896 101.951,25.9563 113.5,39C 110.287,42.9463 106.62,46.4463 102.5,49.5C 94.7398,50.3575 87.0731,51.6909 79.5,53.5C 79.7373,52.209 79.404,51.209 78.5,50.5C 78.4894,48.3141 77.4894,47.4808 75.5,48C 73.771,49.7889 73.1043,51.9556 73.5,54.5C 73.5,54.8333 73.5,55.1667 73.5,55.5C 69.1578,55.7395 64.8244,56.0728 60.5,56.5C 58.042,53.0606 57.8754,49.394 60,45.5C 62.9448,43.3735 66.1115,42.8735 69.5,44C 72.2486,41.81 71.9153,40.1433 68.5,39C 57.8699,37.9629 52.7032,42.7962 53,53.5C 53.3736,55.4913 54.207,57.158 55.5,58.5C 55.8333,59.1667 56.1667,59.8333 56.5,60.5C 55.0413,60.4326 53.7079,60.7659 52.5,61.5C 51.3309,57.6562 48.9976,54.6562 45.5,52.5C 44.0186,53.4803 42.6853,54.647 41.5,56C 43.4412,58.4536 45.7746,60.287 48.5,61.5C 47.0813,62.4511 45.4147,62.7845 43.5,62.5C 37.9195,54.2488 30.9195,52.7488 22.5,58C 20.2177,60.3974 18.8844,63.2307 18.5,66.5C 12.3,68.2994 5.96663,69.2994 -0.5,69.5C -0.5,69.1667 -0.5,68.8333 -0.5,68.5C 25.3552,45.7344 51.0219,22.7344 76.5,-0.5 Z"/></g>
<g><path style="opacity:1" fill="#eb28d2" d="M 80.5,21.5 C 84.0271,21.3964 87.0271,22.5631 89.5,25C 88.8333,25.6667 88.1667,26.3333 87.5,27C 84.8333,27.3333 82.1667,27.6667 79.5,28C 77.0807,29.5088 76.0807,31.6755 76.5,34.5C 81.4572,33.2754 86.2905,31.6087 91,29.5C 96.3827,30.2085 98.716,33.2085 98,38.5C 94.534,47.3185 88.3673,50.1519 79.5,47C 78.4496,44.4968 79.4496,42.9968 82.5,42.5C 87.5737,44.4427 90.9071,42.776 92.5,37.5C 92.5472,35.9996 91.8805,34.9996 90.5,34.5C 86.5516,37.3071 82.2183,39.3071 77.5,40.5C 71.9745,38.7544 70.1411,35.0877 72,29.5C 74.1565,26.0241 76.9898,23.3575 80.5,21.5 Z"/></g>
<g><path style="opacity:0.981" fill="#f4f3f4" d="M 300.5,54.5 C 299.48,56.352 297.98,57.6853 296,58.5C 291.73,57.4655 287.563,56.1321 283.5,54.5C 284.708,50.8777 285.708,47.211 286.5,43.5C 284.669,42.9478 283.003,42.9478 281.5,43.5C 280.465,46.9975 279.131,50.3308 277.5,53.5C 275.591,52.6518 273.591,52.3184 271.5,52.5C 270.948,54.3307 270.948,55.9974 271.5,57.5C 280.889,61.1005 290.556,62.9339 300.5,63C 302.384,61.9513 303.718,60.4513 304.5,58.5C 306.473,61.1395 308.806,63.4728 311.5,65.5C 311.5,67.8333 311.5,70.1667 311.5,72.5C 305.743,90.5207 300.743,108.854 296.5,127.5C 294.833,127.5 293.167,127.5 291.5,127.5C 277.093,122.926 262.426,118.926 247.5,115.5C 249.85,104.099 252.517,92.7661 255.5,81.5C 257.289,77.735 258.789,73.735 260,69.5C 263.402,56.0784 266.736,42.7451 270,29.5C 263.202,46.7553 256.702,64.0887 250.5,81.5C 174.077,94.7797 97.4106,107.446 20.5,119.5C 19.0055,119.291 17.8388,118.624 17,117.5C 11.3895,102.632 5.5562,87.9656 -0.5,73.5C -0.5,72.1667 -0.5,70.8333 -0.5,69.5C 5.96663,69.2994 12.3,68.2994 18.5,66.5C 20.4352,65.8505 22.4352,65.5172 24.5,65.5C 28.8526,64.9412 33.186,64.2745 37.5,63.5C 39.4352,62.8505 41.4352,62.5172 43.5,62.5C 45.4147,62.7845 47.0813,62.4511 48.5,61.5C 49.8333,61.5 51.1667,61.5 52.5,61.5C 53.7079,60.7659 55.0413,60.4326 56.5,60.5C 58.9521,59.9346 61.2854,59.2679 63.5,58.5C 66.5176,58.2962 69.5176,57.9629 72.5,57.5C 74.7354,57.7947 76.7354,57.4614 78.5,56.5C 85.912,55.4912 93.2453,54.1579 100.5,52.5C 157.335,43.2908 214.168,33.9574 271,24.5C 281.048,34.2357 290.881,44.2357 300.5,54.5 Z"/></g>
<g><path style="opacity:1" fill="#ea21d1" d="M 60.5,56.5 C 60.5,56.8333 60.5,57.1667 60.5,57.5C 58.7839,57.6287 57.1172,57.962 55.5,58.5C 54.207,57.158 53.3736,55.4913 53,53.5C 52.7032,42.7962 57.8699,37.9629 68.5,39C 71.9153,40.1433 72.2486,41.81 69.5,44C 66.1115,42.8735 62.9448,43.3735 60,45.5C 57.8754,49.394 58.042,53.0606 60.5,56.5 Z"/></g>
<g><path style="opacity:0.997" fill="#ec27d3" d="M 300.5,54.5 C 301.833,55.8333 303.167,57.1667 304.5,58.5C 303.718,60.4513 302.384,61.9513 300.5,63C 290.556,62.9339 280.889,61.1005 271.5,57.5C 270.948,55.9974 270.948,54.3307 271.5,52.5C 273.591,52.3184 275.591,52.6518 277.5,53.5C 279.131,50.3308 280.465,46.9975 281.5,43.5C 283.003,42.9478 284.669,42.9478 286.5,43.5C 285.708,47.211 284.708,50.8777 283.5,54.5C 287.563,56.1321 291.73,57.4655 296,58.5C 297.98,57.6853 299.48,56.352 300.5,54.5 Z"/></g>
<g><path style="opacity:1" fill="#111111" d="M 244.5,43.5 C 246.288,43.2148 247.955,43.5481 249.5,44.5C 247.656,54.8855 245.489,65.2188 243,75.5C 241.189,79.655 238.023,81.655 233.5,81.5C 233.215,79.712 233.548,78.0453 234.5,76.5C 238.058,74.8769 239.224,72.2103 238,68.5C 233.624,61.581 229.124,54.7477 224.5,48C 226.272,46.5132 228.272,46.1799 230.5,47C 233.541,52.2502 236.708,57.4168 240,62.5C 241.346,56.1185 242.846,49.7852 244.5,43.5 Z"/></g>
<g><path style="opacity:0.999" fill="#939393" d="M 255.5,81.5 C 253.833,81.5 252.167,81.5 250.5,81.5C 256.702,64.0887 263.202,46.7553 270,29.5C 266.736,42.7451 263.402,56.0784 260,69.5C 258.789,73.735 257.289,77.735 255.5,81.5 Z"/></g>
<g><path style="opacity:1" fill="#eb2ad2" d="M 37.5,44.5 C 42.8054,45.2414 44.1388,47.7414 41.5,52C 35.2016,52.4954 33.8682,49.9954 37.5,44.5 Z"/></g>
<g><path style="opacity:1" fill="#e60ece" d="M 78.5,50.5 C 78.5,51.8333 78.5,53.1667 78.5,54.5C 76.8333,54.5 75.1667,54.5 73.5,54.5C 73.1043,51.9556 73.771,49.7889 75.5,48C 77.4894,47.4808 78.4894,48.3141 78.5,50.5 Z"/></g>
<g><path style="opacity:1" fill="#101010" d="M 210.5,48.5 C 215.948,47.975 220.115,49.975 223,54.5C 224.42,60.765 225.254,67.0983 225.5,73.5C 223.833,73.5 222.167,73.5 220.5,73.5C 219.908,67.3752 218.742,61.3752 217,55.5C 214.599,54.3977 212.099,54.231 209.5,55C 208.02,56.2991 207.354,57.9658 207.5,60C 208.639,64.8112 209.639,69.6445 210.5,74.5C 208.696,75.7681 206.696,76.4348 204.5,76.5C 204.318,70.7431 203.485,65.0764 202,59.5C 199.339,56.0339 196.339,55.7006 193,58.5C 192.833,59.8333 192.667,61.1667 192.5,62.5C 193.386,67.814 194.053,73.1473 194.5,78.5C 192.5,78.5 190.5,78.5 188.5,78.5C 187.968,70.1065 186.968,61.7732 185.5,53.5C 187.591,53.3184 189.591,53.6518 191.5,54.5C 195.778,50.9686 200.278,50.6353 205,53.5C 206.73,51.5981 208.563,49.9314 210.5,48.5 Z"/></g>
<g><path style="opacity:1" fill="#878687" d="M 102.5,49.5 C 101.833,50.5 101.167,51.5 100.5,52.5C 93.2453,54.1579 85.912,55.4912 78.5,56.5C 79.1098,55.609 79.4431,54.609 79.5,53.5C 87.0731,51.6909 94.7398,50.3575 102.5,49.5 Z"/></g>
<g><path style="opacity:1" fill="#101010" d="M 143.5,49.5 C 145.167,49.5 146.833,49.5 148.5,49.5C 150.167,61.5 151.833,73.5 153.5,85.5C 151.179,85.7711 149.179,85.1045 147.5,83.5C 137.501,90.4541 130.001,88.4541 125,77.5C 123.72,68.1223 127.72,62.789 137,61.5C 139.59,61.3757 141.923,62.0423 144,63.5C 144.113,59.4537 143.613,55.4537 142.5,51.5C 142.863,50.8165 143.196,50.1499 143.5,49.5 Z"/></g>
<g><path style="opacity:1" fill="#db1fc4" d="M 52.5,61.5 C 51.1667,61.5 49.8333,61.5 48.5,61.5C 45.7746,60.287 43.4412,58.4536 41.5,56C 42.6853,54.647 44.0186,53.4803 45.5,52.5C 48.9976,54.6562 51.3309,57.6562 52.5,61.5 Z"/></g>
<g><path style="opacity:1" fill="#9b378d" d="M 78.5,50.5 C 79.404,51.209 79.7373,52.209 79.5,53.5C 79.4431,54.609 79.1098,55.609 78.5,56.5C 76.7354,57.4614 74.7354,57.7947 72.5,57.5C 72.8333,56.8333 73.1667,56.1667 73.5,55.5C 73.5,55.1667 73.5,54.8333 73.5,54.5C 75.1667,54.5 76.8333,54.5 78.5,54.5C 78.5,53.1667 78.5,51.8333 78.5,50.5 Z"/></g>
<g><path style="opacity:1" fill="#e221cb" d="M 43.5,62.5 C 41.4352,62.5172 39.4352,62.8505 37.5,63.5C 34.335,60.197 30.6683,59.697 26.5,62C 25.1772,62.8159 24.5106,63.9826 24.5,65.5C 22.4352,65.5172 20.4352,65.8505 18.5,66.5C 18.8844,63.2307 20.2177,60.3974 22.5,58C 30.9195,52.7488 37.9195,54.2488 43.5,62.5 Z"/></g>
<g><path style="opacity:1" fill="#928f92" d="M 73.5,55.5 C 73.1667,56.1667 72.8333,56.8333 72.5,57.5C 69.5176,57.9629 66.5176,58.2962 63.5,58.5C 62.609,57.8902 61.609,57.5569 60.5,57.5C 60.5,57.1667 60.5,56.8333 60.5,56.5C 64.8244,56.0728 69.1578,55.7395 73.5,55.5 Z"/></g>
<g><path style="opacity:1" fill="#0c0c0c" d="M 164.5,56.5 C 175.03,54.7095 181.03,59.0428 182.5,69.5C 176.11,70.1761 169.777,71.1761 163.5,72.5C 163.935,76.1582 166.101,77.8248 170,77.5C 173.333,77.5 176,76.1667 178,73.5C 179.011,74.3366 180.178,74.67 181.5,74.5C 180.68,78.8166 178.013,81.3166 173.5,82C 160.892,83.0562 155.392,77.2229 157,64.5C 158.52,60.8424 161.02,58.1757 164.5,56.5 Z"/></g>
<g><path style="opacity:1" fill="#901e82" d="M 60.5,57.5 C 61.609,57.5569 62.609,57.8902 63.5,58.5C 61.2854,59.2679 58.9521,59.9346 56.5,60.5C 56.1667,59.8333 55.8333,59.1667 55.5,58.5C 57.1172,57.962 58.7839,57.6287 60.5,57.5 Z"/></g>
<g><path style="opacity:1" fill="#e2e2e2" d="M 167.5,60.5 C 172.11,60.1198 174.776,62.1198 175.5,66.5C 170.733,66.526 166.066,67.1927 161.5,68.5C 162.345,64.9854 164.345,62.3187 167.5,60.5 Z"/></g>
<g><path style="opacity:1" fill="#c2bdc1" d="M 37.5,63.5 C 33.186,64.2745 28.8526,64.9412 24.5,65.5C 24.5106,63.9826 25.1772,62.8159 26.5,62C 30.6683,59.697 34.335,60.197 37.5,63.5 Z"/></g>
<g><path style="opacity:1" fill="#eb20d2" d="M 280.5,63.5 C 282.833,63.5 285.167,63.5 287.5,63.5C 288.467,68.3673 286.467,70.534 281.5,70C 277.5,73.3333 277.5,76.6667 281.5,80C 286.46,81.6563 291.46,83.1563 296.5,84.5C 297.82,86.8643 297.154,88.5309 294.5,89.5C 289.755,88.6406 285.089,87.4739 280.5,86C 274.092,82.6772 271.925,77.5105 274,70.5C 275.694,67.6424 277.861,65.309 280.5,63.5 Z"/></g>
<g><path style="opacity:1" fill="#0e0e0e" d="M 42.5,66.5 C 45.1194,66.2317 47.6194,66.565 50,67.5C 56.3123,77.7923 61.8123,88.459 66.5,99.5C 62.2728,100.213 59.6062,98.5464 58.5,94.5C 57.6667,94.1667 56.8333,93.8333 56,93.5C 51.4938,94.2088 46.9938,94.8755 42.5,95.5C 42.4249,98.2062 42.0916,100.873 41.5,103.5C 39.5,103.5 37.5,103.5 35.5,103.5C 37.4525,91.0721 39.7858,78.7388 42.5,66.5 Z"/></g>
<g><path style="opacity:1" fill="#0e0e0e" d="M 103.5,65.5 C 111.622,64.4471 117.122,67.7805 120,75.5C 121.05,80.4482 121.55,85.4482 121.5,90.5C 119.234,90.8588 117.401,90.1922 116,88.5C 106.553,95.1953 99.5532,93.1953 95,82.5C 93.5751,74.6831 96.4085,69.0164 103.5,65.5 Z"/></g>
<g><path style="opacity:1" fill="#eeeeee" d="M 134.5,66.5 C 145.832,66.3438 148.832,71.1772 143.5,81C 133.951,84.1262 129.785,80.6262 131,70.5C 132.376,69.2949 133.542,67.9616 134.5,66.5 Z"/></g>
<g><path style="opacity:1" fill="#101010" d="M 75.5,70.5 C 78.941,70.3011 82.2744,70.8011 85.5,72C 88.0327,73.0333 89.6994,74.8666 90.5,77.5C 87.5153,78.8701 84.8486,78.3701 82.5,76C 72.942,75.9306 70.1087,80.4306 74,89.5C 77.9247,93.4101 81.9247,93.4101 86,89.5C 86.4828,88.552 86.6495,87.552 86.5,86.5C 88.1667,86.5 89.8333,86.5 91.5,86.5C 90.6923,93.8003 86.5257,97.4669 79,97.5C 71.3063,95.8006 67.1396,90.9673 66.5,83C 67.4386,77.2687 70.4386,73.102 75.5,70.5 Z"/></g>
<g><path style="opacity:1" fill="#ececec" d="M 104.5,70.5 C 112.642,70.4807 115.808,74.4807 114,82.5C 109.383,89.1517 104.717,89.1517 100,82.5C 98.4742,77.2389 99.9742,73.2389 104.5,70.5 Z"/></g>
<g><path style="opacity:1" fill="#e8e8e8" d="M 46.5,74.5 C 49.8934,78.267 52.5601,82.6003 54.5,87.5C 51.2937,88.8079 47.9604,89.4746 44.5,89.5C 44.4302,84.3909 45.0969,79.3909 46.5,74.5 Z"/></g>
<g><path style="opacity:1" fill="#eb1bd2" d="M 275.5,88.5 C 282.785,88.4854 289.452,90.3187 295.5,94C 293.308,99.3644 291.475,104.864 290,110.5C 282.031,116.37 274.698,115.703 268,108.5C 264.129,99.2952 266.629,92.6286 275.5,88.5 Z"/></g>
<g><path style="opacity:1" fill="#f8f3f7" d="M 276.5,94.5 C 282.629,93.5548 286.296,96.0548 287.5,102C 286.581,107.792 283.248,110.126 277.5,109C 269.949,104.559 269.616,99.7261 276.5,94.5 Z"/></g>
</svg>
